<svg width="24" height="24" viewBox="0 0 24 24" fill="none" xmlns="http://www.w3.org/2000/svg">
<path d="M13.5459 4.34766C14.1865 4.34766 15.9944 10.9391 15.999 10.9561C15.999 10.9561 22.5309 12.8304 22.5322 13.4375C22.5322 14.0444 15.999 15.917 15.999 15.917C15.9881 15.9567 14.1854 22.5273 13.5459 22.5273C12.9067 22.5264 11.109 15.9655 11.0957 15.917C11.0957 15.917 4.55957 14.0444 4.55957 13.4375C4.56088 12.8304 11.0957 10.9561 11.0957 10.9561C11.1046 10.9234 12.9059 4.34863 13.5459 4.34766ZM5.93262 1.47266C6.24975 1.47266 7.14318 4.72343 7.15234 4.75684C7.1764 4.76374 10.3971 5.68957 10.3984 5.99023C10.3984 6.29057 7.17915 7.21497 7.15234 7.22266C7.14549 7.24765 6.25017 10.5078 5.93262 10.5078C5.61463 10.5049 4.72138 7.24651 4.71484 7.22266C4.68454 7.21397 1.46777 6.2904 1.46777 5.99023C1.46914 5.68975 4.68694 4.76485 4.71484 4.75684C4.72377 4.72427 5.61507 1.47557 5.93262 1.47266Z" fill="url(#paint0_linear_2170_17387)"/>
<defs>
<linearGradient id="paint0_linear_2170_17387" x1="1.46777" y1="12" x2="22.5322" y2="12" gradientUnits="userSpaceOnUse">
<stop stop-color="#7B69F1"/>
<stop offset="1" stop-color="#77B1ED"/>
</linearGradient>
</defs>
</svg>
