<svg width="24" height="24" viewBox="0 0 24 24" fill="none" xmlns="http://www.w3.org/2000/svg">
<path d="M4.86201 4.86225C4.98703 4.73723 5.1566 4.66699 5.33341 4.66699H12.8334C13.0102 4.66699 13.1798 4.73723 13.3048 4.86225C13.4298 4.98728 13.5001 5.15685 13.5001 5.33366V6.16699C13.5001 6.71928 13.9478 7.16699 14.5001 7.16699C15.0524 7.16699 15.5001 6.71928 15.5001 6.16699V5.33366C15.5001 4.62641 15.2191 3.94814 14.719 3.44804C14.2189 2.94794 13.5407 2.66699 12.8334 2.66699H5.33341C4.62617 2.66699 3.94789 2.94794 3.4478 3.44804C2.9477 3.94814 2.66675 4.62642 2.66675 5.33366V12.8337C2.66675 13.5409 2.9477 14.2192 3.4478 14.7193C3.94789 15.2194 4.62617 15.5003 5.33341 15.5003H6.16675C6.71903 15.5003 7.16675 15.0526 7.16675 14.5003C7.16675 13.948 6.71903 13.5003 6.16675 13.5003H5.33341C5.1566 13.5003 4.98703 13.4301 4.86201 13.3051C4.73699 13.18 4.66675 13.0105 4.66675 12.8337V5.33366C4.66675 5.15685 4.73699 4.98728 4.86201 4.86225Z" fill="#737373"/>
<path fill-rule="evenodd" clip-rule="evenodd" d="M11.1668 8.50032C9.694 8.50032 8.50009 9.69423 8.50009 11.167V18.667C8.50009 20.1397 9.694 21.3337 11.1668 21.3337H18.6668C20.1395 21.3337 21.3334 20.1397 21.3334 18.667V11.167C21.3334 9.69423 20.1395 8.50032 18.6668 8.50032H11.1668ZM10.5001 11.167C10.5001 10.7988 10.7986 10.5003 11.1668 10.5003H18.6668C19.0349 10.5003 19.3334 10.7988 19.3334 11.167V18.667C19.3334 19.0352 19.0349 19.3337 18.6668 19.3337H11.1668C10.7986 19.3337 10.5001 19.0352 10.5001 18.667V11.167Z" fill="#737373"/>
</svg>
