<svg width="16" height="16" viewBox="0 0 16 16" fill="none" xmlns="http://www.w3.org/2000/svg">
<path fill-rule="evenodd" clip-rule="evenodd" d="M11.0325 2.04341C11.304 1.93093 11.5951 1.87305 11.889 1.87305C12.1829 1.87305 12.4739 1.93093 12.7454 2.04341C13.0169 2.15588 13.2637 2.32073 13.4715 2.52855C13.6793 2.73636 13.8441 2.98308 13.9566 3.25461C14.0691 3.52614 14.127 3.81716 14.127 4.11106C14.127 4.40496 14.0691 4.69598 13.9566 4.96751C13.8441 5.23904 13.6793 5.48576 13.4715 5.69358L5.97147 13.1936C5.88944 13.2756 5.78741 13.3348 5.67548 13.3653L2.61993 14.1987C2.38912 14.2616 2.14228 14.1961 1.97311 14.0269C1.80394 13.8577 1.73839 13.6109 1.80134 13.3801L2.63467 10.3245C2.6652 10.2126 2.72441 10.1106 2.80644 10.0285L10.3064 2.52855C10.5143 2.32073 10.761 2.15588 11.0325 2.04341ZM11.889 3.20638C11.7702 3.20638 11.6525 3.22978 11.5428 3.27525C11.433 3.32071 11.3333 3.38735 11.2493 3.47136L3.87444 10.8462L3.39466 12.6054L5.15385 12.1256L12.5287 4.75077C12.6127 4.66676 12.6793 4.56703 12.7248 4.45727C12.7702 4.34751 12.7936 4.22987 12.7936 4.11106C12.7936 3.99226 12.7702 3.87461 12.7248 3.76486C12.6793 3.65509 12.6127 3.55536 12.5287 3.47136C12.4447 3.38735 12.3449 3.32071 12.2352 3.27525C12.1254 3.22978 12.0078 3.20638 11.889 3.20638Z" fill="#737373"/>
</svg>
