<svg width="24" height="24" viewBox="0 0 24 24" fill="none" xmlns="http://www.w3.org/2000/svg">
<path d="M11.3857 2.87659C11.7469 2.59572 12.2531 2.59572 12.6143 2.87659L20.1143 8.71057C20.3576 8.90003 20.5 9.19119 20.5 9.49963V18.6666C20.4999 19.3738 20.2188 20.0523 19.7188 20.5524C19.2187 21.0523 18.5401 21.3326 17.833 21.3326H14.5V14.9996C14.5 14.4474 14.0523 13.9996 13.5 13.9996H10.5C9.94772 13.9996 9.50001 14.4474 9.5 14.9996V21.3326H6.16699C5.4599 21.3326 4.78132 21.0523 4.28125 20.5524C3.78123 20.0523 3.50009 19.3738 3.5 18.6666V9.49963C3.5 9.19119 3.64236 8.90003 3.88574 8.71057L11.3857 2.87659Z" fill="#737373"/>
</svg>
