<svg width="24" height="24" viewBox="0 0 24 24" fill="none" xmlns="http://www.w3.org/2000/svg">
<path d="M11.3857 2.87756C11.7469 2.5967 12.2531 2.5967 12.6143 2.87756L20.1143 8.71057C20.3578 8.90003 20.5 9.19202 20.5 9.50061V18.6666C20.5 19.3739 20.2188 20.0523 19.7188 20.5524C19.2187 21.0525 18.5403 21.3336 17.833 21.3336H14.5V15.0006C14.5 14.4483 14.0523 14.0006 13.5 14.0006H10.5C9.94772 14.0006 9.5 14.4483 9.5 15.0006V21.3336H6.16699C5.45975 21.3336 4.78135 21.0525 4.28125 20.5524C3.78116 20.0523 3.5 19.3739 3.5 18.6666V9.50061C3.5 9.19202 3.64216 8.90003 3.88574 8.71057L11.3857 2.87756Z" fill="url(#paint0_linear_2170_17373)"/>
<defs>
<linearGradient id="paint0_linear_2170_17373" x1="3.5" y1="12" x2="20.5" y2="12" gradientUnits="userSpaceOnUse">
<stop stop-color="#7B69F1"/>
<stop offset="1" stop-color="#77B1ED"/>
</linearGradient>
</defs>
</svg>
