<svg width="24" height="24" viewBox="0 0 24 24" fill="none" xmlns="http://www.w3.org/2000/svg">
<path d="M17.833 3.5C18.5403 3.5 19.2187 3.78115 19.7188 4.28125C20.2188 4.78135 20.5 5.45975 20.5 6.16699V14.5C20.5 15.2072 20.2188 15.8856 19.7188 16.3857C19.2187 16.8857 18.5402 17.167 17.833 17.167H8.24707L5.20703 20.207C4.92103 20.493 4.49086 20.5786 4.11719 20.4238C3.74359 20.269 3.5 19.9044 3.5 19.5V6.16699C3.5 5.45975 3.78115 4.78135 4.28125 4.28125C4.78135 3.78115 5.45975 3.5 6.16699 3.5H17.833ZM7.20312 9.68164C6.65084 9.68164 6.20312 10.1294 6.20312 10.6816C6.20339 11.2337 6.651 11.6816 7.20312 11.6816H13.0576C13.6097 11.6816 14.0574 11.2337 14.0576 10.6816C14.0576 10.1294 13.6099 9.68164 13.0576 9.68164H7.20312ZM7.20312 6.21289C6.65084 6.21289 6.20312 6.66061 6.20312 7.21289C6.20339 7.76495 6.651 8.21289 7.20312 8.21289H16.7979C17.35 8.21289 17.7976 7.76495 17.7979 7.21289C17.7979 6.66061 17.3501 6.21289 16.7979 6.21289H7.20312Z" fill="#737373"/>
</svg>
