<svg width="16" height="16" viewBox="0 0 16 16" fill="none" xmlns="http://www.w3.org/2000/svg">
<path fill-rule="evenodd" clip-rule="evenodd" d="M2.85395 2.85371C3.18735 2.52031 3.63953 2.33301 4.11103 2.33301H11.8888C12.3603 2.33301 12.8125 2.52031 13.1459 2.85371C13.4793 3.1871 13.6666 3.63929 13.6666 4.11079V9.66634C13.6666 10.1378 13.4793 10.59 13.1459 10.9234C12.8125 11.2568 12.3603 11.4441 11.8888 11.4441H5.49828L3.47132 13.4711C3.28066 13.6617 2.99391 13.7188 2.7448 13.6156C2.49568 13.5124 2.33325 13.2693 2.33325 12.9997V4.11079C2.33325 3.63929 2.52055 3.1871 2.85395 2.85371ZM4.11103 3.66634C3.99316 3.66634 3.88011 3.71317 3.79676 3.79652C3.71341 3.87987 3.66659 3.99291 3.66659 4.11079V11.3902L4.75074 10.306C4.87576 10.181 5.04533 10.1108 5.22214 10.1108H11.8888C12.0067 10.1108 12.1197 10.064 12.2031 9.98061C12.2864 9.89726 12.3333 9.78421 12.3333 9.66634V4.11079C12.3333 3.99291 12.2864 3.87987 12.2031 3.79652C12.1197 3.71317 12.0067 3.66634 11.8888 3.66634H4.11103Z" fill="#404040"/>
<path d="M7.99992 4.59945C8.36811 4.59945 8.66658 4.89792 8.66658 5.26611V6.26611H9.66659C10.0348 6.26611 10.3333 6.56459 10.3333 6.93278C10.3333 7.30097 10.0348 7.59945 9.66659 7.59945H8.66658V8.59945C8.66658 8.96764 8.36811 9.26611 7.99992 9.26611C7.63173 9.26611 7.33325 8.96764 7.33325 8.59945V7.59945H6.33325C5.96506 7.59945 5.66659 7.30097 5.66659 6.93278C5.66659 6.56459 5.96506 6.26611 6.33325 6.26611H7.33325V5.26611C7.33325 4.89792 7.63173 4.59945 7.99992 4.59945Z" fill="#404040"/>
</svg>
