<svg width="24" height="24" viewBox="0 0 24 24" fill="none" xmlns="http://www.w3.org/2000/svg">
<path fill-rule="evenodd" clip-rule="evenodd" d="M10.1667 6.16634C10.1667 5.15382 10.9876 4.33301 12.0001 4.33301C13.0126 4.33301 13.8334 5.15382 13.8334 6.16634C13.8334 7.17886 13.0126 7.99967 12.0001 7.99967C10.9876 7.99967 10.1667 7.17886 10.1667 6.16634Z" fill="#737373"/>
<path fill-rule="evenodd" clip-rule="evenodd" d="M10.1667 11.9997C10.1667 10.9871 10.9876 10.1663 12.0001 10.1663C13.0126 10.1663 13.8334 10.9871 13.8334 11.9997C13.8334 13.0122 13.0126 13.833 12.0001 13.833C10.9876 13.833 10.1667 13.0122 10.1667 11.9997Z" fill="#737373"/>
<path fill-rule="evenodd" clip-rule="evenodd" d="M12.0001 15.9997C10.9876 15.9997 10.1667 16.8205 10.1667 17.833C10.1667 18.8455 10.9876 19.6663 12.0001 19.6663C13.0126 19.6663 13.8334 18.8455 13.8334 17.833C13.8334 16.8205 13.0126 15.9997 12.0001 15.9997Z" fill="#737373"/>
</svg>
