<svg width="24" height="24" viewBox="0 0 24 24" fill="none" xmlns="http://www.w3.org/2000/svg">
<path d="M13.0001 6.16699C13.0001 5.61471 12.5524 5.16699 12.0001 5.16699C11.4478 5.16699 11.0001 5.61471 11.0001 6.16699V11.0003H6.16675C5.61446 11.0003 5.16675 11.448 5.16675 12.0003C5.16675 12.5526 5.61446 13.0003 6.16675 13.0003H11.0001V17.8337C11.0001 18.3859 11.4478 18.8337 12.0001 18.8337C12.5524 18.8337 13.0001 18.3859 13.0001 17.8337V13.0003H17.8334C18.3857 13.0003 18.8334 12.5526 18.8334 12.0003C18.8334 11.448 18.3857 11.0003 17.8334 11.0003H13.0001V6.16699Z" fill="white"/>
</svg>
