<svg width="24" height="24" viewBox="0 0 24 24" fill="none" xmlns="http://www.w3.org/2000/svg">
<path d="M4.5 6C3.94772 6 3.5 6.44772 3.5 7C3.5 7.55228 3.94772 8 4.5 8H19.5C20.0523 8 20.5 7.55228 20.5 7C20.5 6.44772 20.0523 6 19.5 6H4.5Z" fill="url(#paint0_linear_2170_17395)"/>
<path d="M4.5 10.9936C3.94772 10.9936 3.5 11.4414 3.5 11.9936C3.5 12.5459 3.94772 12.9936 4.5 12.9936H16.1667C16.719 12.9936 17.1667 12.5459 17.1667 11.9936C17.1667 11.4414 16.719 10.9936 16.1667 10.9936H4.5Z" fill="url(#paint1_linear_2170_17395)"/>
<path d="M4.5 16C3.94772 16 3.5 16.4477 3.5 17C3.5 17.5523 3.94772 18 4.5 18H16.1667C16.719 18 17.1667 17.5523 17.1667 17C17.1667 16.4477 16.719 16 16.1667 16H4.5Z" fill="url(#paint2_linear_2170_17395)"/>
<defs>
<linearGradient id="paint0_linear_2170_17395" x1="3.5" y1="12" x2="20.5" y2="12" gradientUnits="userSpaceOnUse">
<stop stop-color="#7B69F1"/>
<stop offset="1" stop-color="#77B1ED"/>
</linearGradient>
<linearGradient id="paint1_linear_2170_17395" x1="3.5" y1="12" x2="20.5" y2="12" gradientUnits="userSpaceOnUse">
<stop stop-color="#7B69F1"/>
<stop offset="1" stop-color="#77B1ED"/>
</linearGradient>
<linearGradient id="paint2_linear_2170_17395" x1="3.5" y1="12" x2="20.5" y2="12" gradientUnits="userSpaceOnUse">
<stop stop-color="#7B69F1"/>
<stop offset="1" stop-color="#77B1ED"/>
</linearGradient>
</defs>
</svg>
