<svg width="24" height="24" viewBox="0 0 24 24" fill="none" xmlns="http://www.w3.org/2000/svg">
<path fill-rule="evenodd" clip-rule="evenodd" d="M15.8347 17.2489C14.5419 18.2426 12.9233 18.8333 11.1667 18.8333C6.93248 18.8333 3.5 15.4008 3.5 11.1667C3.5 6.93248 6.93248 3.5 11.1667 3.5C15.4008 3.5 18.8333 6.93248 18.8333 11.1667C18.8333 12.9233 18.2426 14.5419 17.2489 15.8347L20.2071 18.7929C20.5976 19.1834 20.5976 19.8166 20.2071 20.2071C19.8166 20.5976 19.1834 20.5976 18.7929 20.2071L15.8347 17.2489ZM5.5 11.1667C5.5 8.03705 8.03705 5.5 11.1667 5.5C14.2963 5.5 16.8333 8.03705 16.8333 11.1667C16.8333 12.6891 16.2329 14.0713 15.256 15.0895C15.2255 15.1136 15.1961 15.1397 15.1679 15.1679C15.1397 15.1961 15.1136 15.2255 15.0895 15.256C14.0713 16.2329 12.6891 16.8333 11.1667 16.8333C8.03705 16.8333 5.5 14.2963 5.5 11.1667Z" fill="#878D94"/>
</svg>
