<svg width="24" height="24" viewBox="0 0 24 24" fill="none" xmlns="http://www.w3.org/2000/svg">
<path fill-rule="evenodd" clip-rule="evenodd" d="M21.0408 2.95943C21.2643 3.18291 21.3598 3.48585 21.3275 3.77731C21.3185 3.85903 21.2994 3.93984 21.2702 4.01775L15.4442 20.6635C15.3087 21.0506 14.9508 21.3157 14.5411 21.3324C14.1314 21.3491 13.753 21.114 13.5865 20.7393L10.4094 13.5908L3.26086 10.4137C2.88618 10.2472 2.65111 9.86878 2.66783 9.4591C2.68454 9.04942 2.94965 8.69146 3.33665 8.55601L19.9824 2.72998C20.0608 2.70064 20.1421 2.68147 20.2244 2.67249C20.2847 2.66585 20.3452 2.66477 20.4051 2.66907C20.6367 2.68557 20.8637 2.78235 21.0408 2.95943ZM16.528 6.058L6.37807 9.61047L10.9455 11.6405L16.528 6.058ZM12.3597 13.0547L17.9422 7.47222L14.3897 17.6221L12.3597 13.0547Z" fill="url(#paint0_linear_2170_17400)"/>
<defs>
<linearGradient id="paint0_linear_2170_17400" x1="2.66699" y1="11.9999" x2="21.3337" y2="11.9999" gradientUnits="userSpaceOnUse">
<stop stop-color="#7B69F1"/>
<stop offset="1" stop-color="#77B1ED"/>
</linearGradient>
</defs>
</svg>
