<svg width="24" height="24" viewBox="0 0 24 24" fill="none" xmlns="http://www.w3.org/2000/svg">
<path d="M11.9639 1.90759C12.5995 1.89475 13.2709 2.09756 13.7949 2.56384C14.3359 3.0453 14.6496 3.74666 14.6504 4.57751C14.651 4.6755 14.6784 4.73578 14.709 4.77673C14.7439 4.82349 14.8018 4.869 14.8818 4.8988C15.0489 4.96094 15.224 4.92681 15.3438 4.80701C15.9242 4.22622 16.6412 3.97913 17.3545 4.04919C18.0366 4.11623 18.6301 4.46319 19.0527 4.9115C19.8819 5.79109 20.2913 7.39863 19.0713 8.62439C18.9813 8.71735 18.9564 8.7934 18.9492 8.84412C18.9412 8.90134 18.9498 8.97144 18.9873 9.04724C19.0653 9.20476 19.243 9.33907 19.4834 9.33923C20.3079 9.33923 20.9949 9.66682 21.457 10.2172C21.8996 10.7444 22.081 11.4083 22.0693 12.0248C22.0465 13.2293 21.2128 14.6722 19.4834 14.6722C19.3061 14.6724 19.152 14.7771 19.0762 14.9369C19.0402 15.0128 19.0315 15.0833 19.0391 15.1381C19.0456 15.1853 19.067 15.2475 19.1377 15.3207C19.7085 15.8944 19.9401 16.606 19.8867 17.3002C19.8352 17.9694 19.5259 18.5737 19.1045 19.0199C18.6837 19.4654 18.0937 19.8122 17.416 19.8832C16.706 19.9576 15.989 19.7172 15.4102 19.1381C15.3121 19.04 15.2312 19.0116 15.1797 19.0033C15.1232 18.9942 15.058 19.0019 14.9893 19.0345C14.8486 19.1015 14.717 19.2632 14.7168 19.5052C14.7168 21.2348 13.2739 22.0685 12.0693 22.0912C11.4528 22.1028 10.7889 21.9215 10.2617 21.4789C9.71137 21.0168 9.38379 20.3297 9.38379 19.5052C9.38359 19.3521 9.27946 19.1736 9.08301 19.0804C8.99406 19.0382 8.91709 19.0309 8.86328 19.0385C8.81903 19.0447 8.76098 19.064 8.69141 19.1371C8.09192 19.7668 7.32993 19.9894 6.60449 19.9066C5.91486 19.8279 5.29716 19.4823 4.84863 19.0443C4.40488 18.6109 4.03622 17.9968 3.9873 17.2963C3.93395 16.5312 4.27616 15.8054 4.99414 15.3138C4.99566 15.3104 4.99845 15.3033 5.00098 15.2914C5.01047 15.2463 5.01081 15.1585 4.9707 15.0502C4.88336 14.8144 4.72673 14.7395 4.62207 14.7386C2.89915 14.7368 1.99793 13.3494 1.93359 12.1244C1.9011 11.5039 2.06673 10.8296 2.50684 10.2924C2.96669 9.73131 3.65785 9.40575 4.4834 9.40564C4.66655 9.40564 4.80479 9.3066 4.875 9.13318C4.94683 8.95541 4.91546 8.77617 4.78516 8.64587C4.20615 8.06726 3.96552 7.35059 4.03906 6.64099C4.10935 5.96353 4.45527 5.37317 4.90039 4.95154C5.34629 4.52926 5.95084 4.21857 6.62109 4.16736C7.31623 4.11426 8.02835 4.34717 8.60254 4.91833C8.71246 5.02381 8.87904 5.06005 9.05957 4.98767C9.23568 4.91705 9.31619 4.78909 9.31738 4.6449C9.318 3.81432 9.63139 3.11443 10.1572 2.62537C10.6678 2.15052 11.3277 1.92053 11.9639 1.90759ZM11.9834 8.50525C11.8024 8.50526 11.6247 8.51977 11.4512 8.54626C11.1036 8.59935 10.7728 8.70351 10.4668 8.85095C10.2117 8.97383 9.97393 9.12671 9.75781 9.30505C9.49832 9.51919 9.26984 9.76965 9.08105 10.0492C8.92399 10.2818 8.79435 10.5343 8.69629 10.8021C8.61771 11.0167 8.55982 11.2411 8.52441 11.473C8.49791 11.6466 8.48342 11.8243 8.4834 12.0052C8.4834 12.1261 8.48999 12.2459 8.50195 12.3636C8.53184 12.6578 8.59811 12.9413 8.69629 13.2094C8.77479 13.4237 8.87336 13.6283 8.99023 13.8207C9.16563 14.1093 9.38222 14.3701 9.63086 14.5961C9.92086 14.8596 10.2548 15.0759 10.6211 15.2308C10.883 15.3416 11.1613 15.4209 11.4512 15.4652C11.6247 15.4917 11.8024 15.5052 11.9834 15.5052C12.4665 15.5052 12.9271 15.4078 13.3457 15.2308C13.4506 15.1865 13.553 15.1374 13.6523 15.0834C13.8012 15.0025 13.9433 14.9108 14.0781 14.8099C14.1679 14.7428 14.2541 14.6713 14.3369 14.5961C14.4197 14.5208 14.4989 14.4416 14.5742 14.3588C14.6495 14.276 14.721 14.1897 14.7881 14.1C14.8889 13.9652 14.9807 13.8231 15.0615 13.6742C15.1155 13.5748 15.1646 13.4724 15.209 13.3676C15.386 12.9489 15.4834 12.4883 15.4834 12.0052C15.4834 11.8243 15.4699 11.6466 15.4434 11.473C15.3991 11.1832 15.3198 10.9048 15.209 10.6429C15.1205 10.4337 15.0114 10.2353 14.8857 10.0492C14.8542 10.0025 14.8218 9.95653 14.7881 9.9115C14.721 9.82175 14.6495 9.73551 14.5742 9.65271C14.3482 9.40407 14.0875 9.18748 13.7988 9.01208C13.7026 8.9536 13.603 8.90012 13.501 8.85095C13.042 8.62981 12.527 8.50525 11.9834 8.50525Z" fill="#737373"/>
</svg>
