<svg width="24" height="24" viewBox="0 0 24 24" fill="none" xmlns="http://www.w3.org/2000/svg">
<path d="M11.9639 1.90857C12.5995 1.89572 13.2709 2.09853 13.7949 2.56482C14.3359 3.04635 14.6497 3.74755 14.6504 4.57849C14.651 4.67618 14.6786 4.73579 14.709 4.77673C14.7439 4.82349 14.8018 4.86998 14.8818 4.89978C15.0489 4.96187 15.224 4.92678 15.3438 4.80701C15.9241 4.22644 16.6413 3.97917 17.3545 4.04919C18.0366 4.11622 18.6301 4.46324 19.0527 4.9115C19.882 5.79106 20.2915 7.3995 19.0713 8.62537C18.9813 8.71839 18.9563 8.7944 18.9492 8.84509C18.9412 8.90233 18.9498 8.97242 18.9873 9.04822C19.0653 9.20568 19.2431 9.33905 19.4834 9.33923C20.3078 9.33923 20.9949 9.66688 21.457 10.2172C21.8997 10.7443 22.0809 11.4083 22.0693 12.0248C22.0466 13.2293 21.2129 14.6732 19.4834 14.6732C19.3062 14.6734 19.152 14.7773 19.0762 14.9369C19.0402 15.0128 19.0325 15.0833 19.04 15.1381C19.0465 15.1852 19.0671 15.2474 19.1377 15.3207C19.7086 15.8944 19.9401 16.6069 19.8867 17.3011C19.8352 17.9701 19.5257 18.5739 19.1045 19.0199C18.6837 19.4654 18.0937 19.8131 17.416 19.8842C16.706 19.9585 15.989 19.7173 15.4102 19.1381C15.3121 19.0401 15.2312 19.0126 15.1797 19.0043C15.1232 18.9952 15.058 19.0028 14.9893 19.0355C14.8486 19.1025 14.7168 19.264 14.7168 19.5062C14.7168 21.2358 13.2739 22.0695 12.0693 22.0922C11.4528 22.1038 10.7889 21.9216 10.2617 21.4789C9.7115 21.0168 9.38379 20.3306 9.38379 19.5062C9.38377 19.353 9.27964 19.1737 9.08301 19.0804C8.99418 19.0384 8.91704 19.031 8.86328 19.0385C8.81904 19.0447 8.76094 19.0641 8.69141 19.1371C8.09189 19.7669 7.33 19.9904 6.60449 19.9076C5.91487 19.8289 5.29716 19.4833 4.84863 19.0453C4.40477 18.6118 4.03617 17.997 3.9873 17.2963C3.93409 16.5313 4.27629 15.8063 4.99414 15.3148C4.99565 15.3115 4.9984 15.3036 5.00098 15.2914C5.01038 15.2462 5.01063 15.1591 4.9707 15.0511C4.8835 14.8156 4.72774 14.7407 4.62305 14.7396C2.89983 14.738 1.99793 13.3505 1.93359 12.1254C1.90101 11.5048 2.06664 10.8306 2.50684 10.2933C2.96668 9.73213 3.65774 9.40674 4.4834 9.40662C4.66668 9.40662 4.80484 9.30683 4.875 9.13318C4.94675 8.95549 4.91535 8.77711 4.78516 8.64685C4.20602 8.06815 3.96543 7.35071 4.03906 6.64099C4.10943 5.96353 4.45522 5.37313 4.90039 4.95154C5.34629 4.52927 5.95085 4.21956 6.62109 4.16833C7.31624 4.11522 8.02834 4.34716 8.60254 4.91833C8.71242 5.02401 8.87892 5.06101 9.05957 4.98865C9.23561 4.91807 9.3161 4.78998 9.31738 4.64587C9.31796 3.81527 9.63141 3.11544 10.1572 2.62634C10.6679 2.15141 11.3277 1.9215 11.9639 1.90857ZM11.9834 8.50623C11.8025 8.50624 11.6247 8.51977 11.4512 8.54626C11.0454 8.60822 10.6627 8.74036 10.3154 8.92908C10.1173 9.03673 9.9305 9.16258 9.75781 9.30505C9.45502 9.55487 9.19498 9.8547 8.99023 10.1918C8.93191 10.2878 8.87815 10.3869 8.8291 10.4886C8.68163 10.7947 8.57755 11.1254 8.52441 11.473C8.49784 11.6469 8.4834 11.8249 8.4834 12.0062C8.4834 12.1875 8.49783 12.3656 8.52441 12.5394C8.57754 12.887 8.68163 13.2178 8.8291 13.5238C8.87815 13.6256 8.93191 13.7247 8.99023 13.8207C9.19497 14.1578 9.45502 14.4576 9.75781 14.7074C9.9305 14.8499 10.1173 14.9757 10.3154 15.0834C10.6628 15.2721 11.0454 15.4042 11.4512 15.4662C11.6247 15.4927 11.8025 15.5062 11.9834 15.5062C12.0439 15.5062 12.1043 15.5044 12.1641 15.5013C12.8201 15.4681 13.4285 15.2544 13.9404 14.9086C14.0335 14.8457 14.1236 14.7787 14.21 14.7074C14.3396 14.6004 14.4612 14.484 14.5742 14.3597C14.6496 14.2768 14.7208 14.1899 14.7881 14.1C14.8889 13.9651 14.9807 13.8231 15.0615 13.6742C15.1692 13.476 15.258 13.2662 15.3262 13.0472C15.4115 12.773 15.4644 12.4845 15.4795 12.1859C15.4825 12.1264 15.4834 12.0665 15.4834 12.0062C15.4834 11.946 15.4825 11.886 15.4795 11.8265C15.4644 11.528 15.4115 11.2394 15.3262 10.9652C15.258 10.7462 15.1692 10.5364 15.0615 10.3383C14.9807 10.1894 14.8889 10.0473 14.7881 9.91248C14.7208 9.82252 14.6496 9.73568 14.5742 9.65271C14.4612 9.52841 14.3396 9.41203 14.21 9.30505C14.1236 9.23376 14.0335 9.16675 13.9404 9.10388C13.4285 8.75807 12.8201 8.54438 12.1641 8.51111C12.1043 8.50808 12.0439 8.50623 11.9834 8.50623Z" fill="url(#paint0_linear_2170_17383)"/>
<defs>
<linearGradient id="paint0_linear_2170_17383" x1="1.92969" y1="11.9999" x2="22.0699" y2="11.9999" gradientUnits="userSpaceOnUse">
<stop stop-color="#7B69F1"/>
<stop offset="1" stop-color="#77B1ED"/>
</linearGradient>
</defs>
</svg>
