<svg width="24" height="24" viewBox="0 0 24 24" fill="none" xmlns="http://www.w3.org/2000/svg">
<path fill-rule="evenodd" clip-rule="evenodd" d="M6.16667 20.5C4.69391 20.5 3.5 19.3061 3.5 17.8333V6.16667C3.5 4.69391 4.69391 3.5 6.16667 3.5H17.8333C19.3061 3.5 20.5 4.69391 20.5 6.16667V17.8333C20.5 19.3061 19.3061 20.5 17.8333 20.5H6.16667ZM5.5 6.16667C5.5 5.79848 5.79848 5.5 6.16667 5.5H8.5V18.5H6.16667C5.79848 18.5 5.5 18.2015 5.5 17.8333V6.16667ZM10.5 18.5V5.5H17.8333C18.2015 5.5 18.5 5.79848 18.5 6.16667V17.8333C18.5 18.2015 18.2015 18.5 17.8333 18.5H10.5Z" fill="#878D94"/>
</svg>
