<svg width="16" height="16" viewBox="0 0 16 16" fill="none" xmlns="http://www.w3.org/2000/svg">
<path fill-rule="evenodd" clip-rule="evenodd" d="M5.11103 3.99957V3.55512C5.11103 3.08363 5.29833 2.63144 5.63173 2.29804C5.96513 1.96464 6.41731 1.77734 6.88881 1.77734H9.11103C9.58252 1.77734 10.0347 1.96464 10.3681 2.29804C10.7015 2.63144 10.8888 3.08363 10.8888 3.55512V3.99957H11.8858L11.8888 3.99957L11.8919 3.99957H12.9999C13.3681 3.99957 13.6666 4.29805 13.6666 4.66624C13.6666 5.03443 13.3681 5.33291 12.9999 5.33291H12.5555V12.444C12.5555 12.9155 12.3682 13.3677 12.0348 13.7011C11.7014 14.0345 11.2492 14.2218 10.7777 14.2218H5.22214C4.75064 14.2218 4.29846 14.0345 3.96506 13.7011C3.63166 13.3677 3.44436 12.9155 3.44436 12.444V5.33291H2.99992C2.63173 5.33291 2.33325 5.03443 2.33325 4.66624C2.33325 4.29805 2.63173 3.99957 2.99992 3.99957H4.10798L4.11103 3.99957L4.11408 3.99957H5.11103ZM6.57454 3.24085C6.65789 3.1575 6.77093 3.11068 6.88881 3.11068H9.11103C9.2289 3.11068 9.34195 3.1575 9.4253 3.24085C9.50865 3.3242 9.55547 3.43725 9.55547 3.55512V3.99957H6.44436V3.55512C6.44436 3.43725 6.49119 3.3242 6.57454 3.24085ZM4.77769 5.33291V12.444C4.77769 12.5619 4.82452 12.6749 4.90787 12.7583C4.99122 12.8416 5.10427 12.8885 5.22214 12.8885H10.7777C10.8956 12.8885 11.0086 12.8416 11.092 12.7583C11.1753 12.6749 11.2221 12.5619 11.2221 12.444V5.33291H4.77769Z" fill="#737373"/>
</svg>
